<svg xmlns="http://www.w3.org/2000/svg" width="300.33" height="349.668" viewBox="0 0 300.33 349.668">
  <g id="software-engineer" transform="translate(-24.669)">
    <path id="Path_4" data-name="Path 4" d="M174.833,197.2c24.125,0,80.846-29.034,80.846-98.6,0-54.456-7.35-98.6-80.846-98.6S93.987,44.145,93.987,98.6C93.988,168.17,150.708,197.2,174.833,197.2ZM106.07,82.145c5.68-10.983,17.963-23.674,44.381-23.111,0,0,15.747,38.194,93.05,21.042.312,6.1.41,12.326.41,18.526,0,34-15.016,55.075-27.612,66.762-15.871,14.727-33.493,20.072-41.465,20.072s-25.594-5.345-41.465-20.072c-12.6-11.687-27.612-32.757-27.612-66.762C105.756,93.1,105.835,87.581,106.07,82.145Z" fill="#000000"/>
    <path id="Path_5" data-name="Path 5" d="M324.926,298.327C320.8,272.663,312.3,239.6,295.258,227.855c-11.64-8.026-52.248-29.721-69.589-38.985l-.293-.156a5.665,5.665,0,0,0-6.169.541,73.672,73.672,0,0,1-29.574,14.284,5.667,5.667,0,0,0-4.009,3.374l-10.791,26.206-10.791-26.206a5.669,5.669,0,0,0-4.009-3.374,73.672,73.672,0,0,1-29.574-14.284,5.667,5.667,0,0,0-6.17-.541c-17.134,9.156-58.238,31.294-69.83,39.107-19.62,13.217-28.2,61.052-29.719,70.507a5.686,5.686,0,0,0,.253,2.792c.7,1.982,18.709,48.548,149.84,48.548S323.97,303.1,324.673,301.12A5.668,5.668,0,0,0,324.926,298.327ZM159.66,282.743a1,1,0,0,1-.6.916l-16.174,7.085,16.174,7.084a1,1,0,0,1,.6.916v5.3a1,1,0,0,1-1.422.906l-24-11.15a1,1,0,0,1-.579-.907v-4.3a1,1,0,0,1,.579-.907l24-11.15a1,1,0,0,1,1.422.908v5.3Zm24.408-12.667-10.7,36.252a1,1,0,0,1-.959.717h-5.051a1,1,0,0,1-.959-1.283l10.7-36.252a1,1,0,0,1,.959-.717h5.051a1,1,0,0,1,.959,1.283Zm31.941,22.968a1,1,0,0,1-.584.909l-24,11a1,1,0,0,1-.416.092,1,1,0,0,1-1-1v-5.3a1,1,0,0,1,.6-.919l16.523-7.081-16.523-7.082a1,1,0,0,1-.6-.919v-5.3a1,1,0,0,1,1.416-.91l24,11a1,1,0,0,1,.584.909Z" fill="#000000"/>
    <path id="Path_6" data-name="Path 6" d="M159.284,126.03c9.089-4.743,12.227-20.58,12.362-21.287,0-.011.288-1.062,3.175-1.062l.23,0c2.227,0,2.922.732,2.992,1.227.135.669,3.394,16.453,12.337,21.124,6.024,3.144,13.225,3.8,18.2,3.8,6.387,0,12.8-1.118,15.964-2.784,6.82-3.591,7.426-6.189,9.9-21.238a4.09,4.09,0,0,1,.478-1.422,3.172,3.172,0,0,1,.361-.438,5.281,5.281,0,0,0,1.577-4.232c-.007-.311.005-.846.019-1.443l0-.143c.024-1.048.048-2.222.01-2.893a5.983,5.983,0,0,0-5.043-5.446,102.743,102.743,0,0,0-20.532-1.9c-3.237,0-6.581.122-9.936.363l-.588.042c-6.839.483-10.607.75-15.186,2.8-.927.415-1.956.914-3.063,1.482a26.619,26.619,0,0,1-5.108,1.98,10.389,10.389,0,0,1-5.23,0,26.89,26.89,0,0,1-5.106-1.979c-1.109-.57-2.139-1.069-3.061-1.482-4.579-2.051-8.347-2.317-15.2-2.8l-.576-.04c-3.351-.239-6.691-.361-9.928-.361a102.442,102.442,0,0,0-20.459,1.88,6.03,6.03,0,0,0-5.121,5.457c-.042.678-.015,1.908.008,2.891l.008.432c.01.482.018.9.012,1.16a5.31,5.31,0,0,0,1.6,4.262,2.865,2.865,0,0,1,.339.412,4.075,4.075,0,0,1,.476,1.42c2.481,15.047,3.087,17.646,9.9,21.236,3.158,1.666,9.574,2.784,15.966,2.784C146.059,129.833,153.258,129.174,159.284,126.03Zm26.141-26.423c.163-.4,2.071-3.951,18.9-4.931,2.908-.169,5.366-.251,7.515-.251,9.369,0,12.29,1.592,13.967,4.158a15.939,15.939,0,0,1,1.715,6.982c.021,4.695-.893,13.031-7.246,16.111A29.6,29.6,0,0,1,208.138,124c-8.734,0-15.677-2.906-18.572-7.775C183.321,105.736,185.408,99.656,185.425,99.607Zm-63.28,5.961a15.986,15.986,0,0,1,1.714-6.985c1.678-2.567,4.6-4.159,13.967-4.159,2.151,0,4.609.082,7.514.252,16.478.96,18.672,4.379,18.93,5.015.021.061,1.979,6.2-4.17,16.536C157.2,121.1,150.26,124,141.529,124a29.606,29.606,0,0,1-12.136-2.324C123.043,118.6,122.126,110.264,122.145,105.568Z" fill="#000000"/>
  </g>
</svg>
