<?xml version="1.0" encoding="utf-8"?>
<!-- Generator: Adobe Illustrator 22.1.0, SVG Export Plug-In . SVG Version: 6.00 Build 0)  -->
<svg version="1.1" id="Layer_1" xmlns="http://www.w3.org/2000/svg" xmlns:xlink="http://www.w3.org/1999/xlink" x="0px" y="0px"
	 viewBox="0 0 512 512" style="enable-background:new 0 0 512 512;" xml:space="preserve" fill="#0C57EF">
<g>
	<path d="M255.9,133.4l8.3-14.2c5.1-8.9,16.4-11.9,25.3-6.8s11.9,16.4,6.8,25.3l-79.4,137.4h57.4c18.6,0,29,21.9,21,37H127
		c-10.3,0-18.5-8.3-18.5-18.5s8.3-18.5,18.5-18.5h47.2l60.4-104.7l-18.9-32.8c-5.1-8.9-2.1-20.1,6.8-25.3c8.9-5.1,20.1-2.1,25.3,6.8
		L255.9,133.4L255.9,133.4z M184.5,331.2l-17.8,30.8c-5.1,8.9-16.4,11.9-25.3,6.8c-8.9-5.1-11.9-16.4-6.8-25.3l13.2-22.9
		C162.7,316.1,174.9,319.6,184.5,331.2L184.5,331.2z M337.7,275.2h48.2c10.3,0,18.5,8.3,18.5,18.5s-8.3,18.5-18.5,18.5h-26.8
		l18.1,31.3c5.1,8.9,2.1,20.1-6.8,25.3c-8.9,5.1-20.1,2.1-25.3-6.8c-30.4-52.7-53.3-92.2-68.4-118.5c-15.5-26.8-4.4-53.6,6.5-62.7
		C295.4,201.7,313.5,233.2,337.7,275.2L337.7,275.2z M256,31C131.7,31,31,131.7,31,256s100.7,225,225,225s225-100.7,225-225
		S380.3,31,256,31z M452,256c0,107.7-87.2,196-196,196c-107.7,0-196-87.2-196-196c0-107.7,87.2-196,196-196
		C363.7,60,452,147.2,452,256z"/>
</g>
</svg>
