<?xml version="1.0" encoding="utf-8"?>
<!-- Generator: Adobe Illustrator 24.3.0, SVG Export Plug-In . SVG Version: 6.00 Build 0)  -->
<svg version="1.1" id="Layer_1" xmlns="http://www.w3.org/2000/svg" xmlns:xlink="http://www.w3.org/1999/xlink" x="0px" y="0px"
	 viewBox="0 0 512 512" style="enable-background:new 0 0 512 512;" xml:space="preserve">
<style type="text/css">
	.st0{fill:url(#SVGID_1_);}
	.st1{fill:#FFFFFF;}
</style>
<g>
	
		<linearGradient id="SVGID_1_" gradientUnits="userSpaceOnUse" x1="6.1676" y1="505.959" x2="6.8075" y2="505.959" gradientTransform="matrix(4.898587e-14 800 800 -4.898587e-14 -404511.1875 -4934.0479)">
		<stop  offset="0" style="stop-color:#0ED4FC"/>
		<stop  offset="1" style="stop-color:#0C57EF"/>
	</linearGradient>
	<path class="st0" d="M408.52,0.03H103.41C46.26,0.03,0,46.29,0,103.44v305.18c0,57.08,46.26,103.35,103.41,103.35h305.18
		c57.08,0,103.41-46.26,103.41-103.41V103.44C511.93,46.3,465.67,0.03,408.52,0.03z"/>
	<path class="st1" d="M253.8,117.65l10.37-17.91c6.4-11.19,20.66-14.97,31.87-8.57c11.19,6.4,14.98,20.68,8.57,31.87l-99.89,172.9
		h72.24c23.43,0,36.54,27.52,26.37,46.58H91.51c-12.93,0-23.3-10.37-23.3-23.3c0-12.93,10.37-23.3,23.3-23.3h59.38l76.03-131.76
		l-23.73-41.21c-6.4-11.19-2.62-25.35,8.57-31.87c11.19-6.4,25.35-2.62,31.87,8.57L253.8,117.65z M163.95,366.51l-22.4,38.84
		c-6.4,11.19-20.68,14.97-31.87,8.57c-11.19-6.4-14.97-20.66-8.57-31.87l16.64-28.8C136.56,347.44,151.85,351.92,163.95,366.51z
		 M356.81,296.06h60.6c12.93,0,23.3,10.37,23.3,23.3c0,12.93-10.37,23.3-23.3,23.3h-33.67l22.71,39.42
		c6.4,11.19,2.62,25.35-8.57,31.87c-11.19,6.4-25.35,2.62-31.87-8.57c-38.27-66.36-66.99-116.02-86.07-149.1
		c-19.51-33.67-5.57-67.44,8.19-78.9C303.45,203.59,326.29,243.21,356.81,296.06z"/>
</g>
</svg>
